<?xml version="1.0" standalone="no"?>
<!DOCTYPE svg PUBLIC "-//W3C//DTD SVG 20010904//EN"
 "http://www.w3.org/TR/2001/REC-SVG-20010904/DTD/svg10.dtd">
<svg version="1.0" xmlns="http://www.w3.org/2000/svg"
 width="109.000000pt" height="109.000000pt" viewBox="0 0 109.000000 109.000000"
 preserveAspectRatio="xMidYMid meet">
<metadata>
Created by potrace 1.14, written by Peter Selinger 2001-2017
</metadata>
<g transform="translate(0.000000,109.000000) scale(0.100000,-0.100000)"
fill="#000000" stroke="none">
<path d="M490 968 c-19 -5 -52 -23 -72 -39 -45 -36 -53 -37 -32 -4 9 14 12 25
8 25 -20 0 -74 -41 -74 -55 0 -9 -4 -14 -10 -10 -10 6 -32 -63 -34 -110 -4
-94 103 -238 164 -222 10 3 21 0 23 -6 4 -12 20 -6 53 18 19 14 23 14 49 -7
16 -12 30 -18 32 -12 2 6 16 9 32 6 20 -3 35 2 50 17 12 12 25 21 29 21 14 0
51 57 72 110 11 27 16 50 11 50 -6 0 -6 12 -1 30 5 18 5 32 -1 35 -5 4 -9 17
-9 29 0 29 -33 72 -70 91 -31 16 -46 9 -28 -13 7 -8 13 -21 14 -31 2 -10 -5
-5 -18 12 -37 50 -125 81 -188 65z m25 -27 c-3 -6 -12 -11 -18 -11 -7 0 -24
-7 -39 -14 -15 -8 -30 -11 -33 -6 -3 4 10 15 28 23 59 27 76 29 62 8z m95 -12
c0 -11 -3 -11 -24 -3 -23 9 -20 23 4 17 11 -3 20 -9 20 -14z m-90 -18 c0 -11
-59 -36 -67 -27 -3 3 9 12 28 20 41 18 39 18 39 7z m77 -14 c4 -6 -2 -8 -18
-4 -13 4 -28 7 -32 7 -5 0 -6 4 -3 9 7 11 44 3 53 -12z m-192 -37 c-8 -16 -15
-36 -15 -45 0 -8 -4 -15 -10 -15 -5 0 -10 7 -10 15 0 23 32 85 42 79 4 -3 1
-18 -7 -34z m281 -6 c16 -39 18 -54 5 -54 -5 0 -12 13 -16 30 -4 16 -11 32
-16 35 -5 4 -9 13 -9 21 0 24 20 5 36 -32z m-166 17 c0 -5 -9 -11 -20 -14 -22
-6 -28 8 -7 16 19 8 27 8 27 -2z m54 3 c17 -6 22 -24 8 -24 -5 0 -17 7 -28 15
-19 15 -8 20 20 9z m-139 -31 c-5 -10 -9 -22 -9 -27 -1 -5 -7 -11 -14 -14 -9
-3 -10 3 -2 24 6 15 13 31 16 36 10 16 17 0 9 -19z m219 -9 c9 -23 7 -46 -3
-40 -11 7 -21 56 -11 56 4 0 11 -7 14 -16z m-184 2 c0 -3 -4 -8 -10 -11 -5 -3
-10 -1 -10 4 0 6 5 11 10 11 6 0 10 -2 10 -4z m260 -51 c0 -19 -4 -35 -8 -35
-4 0 -6 16 -4 35 2 19 6 35 8 35 2 0 4 -16 4 -35z m-182 -10 c-9 -9 -30 14
-23 25 6 9 10 8 17 -4 6 -10 8 -19 6 -21z m-188 -42 c5 -20 5 -33 -1 -33 -5 0
-9 11 -9 25 0 14 -4 25 -9 25 -4 0 -6 12 -3 28 5 22 7 23 10 7 2 -11 7 -35 12
-52z m30 38 c0 -6 -4 -13 -10 -16 -5 -3 -10 1 -10 9 0 9 5 16 10 16 6 0 10 -4
10 -9z m260 -40 c-19 -37 -30 -22 -12 15 11 23 18 31 20 21 2 -9 -2 -25 -8
-36z m50 34 c0 -21 -32 -85 -43 -85 -5 0 -6 8 -2 18 5 9 13 32 19 50 11 33 26
43 26 17z m-230 -28 c0 -5 -4 -5 -10 -2 -5 3 -10 14 -10 23 0 15 2 15 10 2 5
-8 10 -19 10 -23z m45 3 c3 -5 1 -10 -4 -10 -6 0 -11 5 -11 10 0 6 2 10 4 10
3 0 8 -4 11 -10z m188 -50 c-53 -65 -102 -100 -128 -90 -16 5 -13 8 15 13 37
8 119 85 121 115 1 15 2 15 6 0 2 -9 -4 -26 -14 -38z m-298 10 c10 -11 13 -20
7 -20 -6 0 -16 9 -22 20 -6 11 -9 20 -7 20 2 0 12 -9 22 -20z m95 10 c0 -5 -4
-10 -10 -10 -5 0 -10 5 -10 10 0 6 5 10 10 10 6 0 10 -4 10 -10z m6 -30 c8 0
14 -4 14 -10 0 -15 -24 -12 -46 6 -17 14 -17 15 -1 10 10 -3 25 -6 33 -6z
m-106 -25 c14 -19 14 -19 -2 -6 -10 7 -18 18 -18 24 0 6 1 8 3 6 1 -2 9 -13
17 -24z m55 6 c3 -5 19 -12 35 -16 17 -4 30 -11 30 -16 0 -6 -10 -8 -22 -4
-35 10 -68 28 -68 37 0 11 17 10 25 -1z m185 1 c0 -8 -43 -32 -57 -32 -8 0 41
39 50 40 4 0 7 -4 7 -8z m-149 -54 c23 -3 23 -4 3 -9 -15 -5 -31 1 -50 18 -27
23 -27 24 -3 10 14 -8 36 -17 50 -19z m79 22 c0 -5 -7 -10 -15 -10 -8 0 -15 5
-15 10 0 6 7 10 15 10 8 0 15 -4 15 -10z"/>
<path d="M910 450 c-21 -21 -23 -29 -14 -54 8 -22 51 -20 63 2 7 14 6 25 -4
39 -8 11 -11 23 -8 27 3 3 1 6 -5 6 -7 0 -21 -9 -32 -20z m40 -41 c0 -5 -9 -9
-20 -9 -19 0 -27 20 -13 33 7 8 33 -11 33 -24z"/>
<path d="M10 416 c0 -22 5 -36 13 -36 42 1 51 62 10 68 -20 3 -23 -1 -23 -32z
m27 -8 c-3 -8 -6 -5 -6 6 -1 11 2 17 5 13 3 -3 4 -12 1 -19z"/>
<path d="M81 419 c-12 -35 -6 -53 10 -29 8 13 10 13 18 0 15 -22 24 -5 14 26
-13 39 -29 40 -42 3z"/>
<path d="M153 443 c-16 -6 -17 -35 -1 -51 18 -18 46 -14 58 8 9 17 8 20 -10
20 -13 0 -19 -4 -14 -11 4 -7 1 -10 -6 -7 -23 7 -23 28 -1 28 12 0 21 5 21 10
0 10 -26 12 -47 3z"/>
<path d="M270 415 c0 -19 5 -35 11 -35 5 0 8 4 4 9 -3 5 -1 12 5 16 5 3 10 -1
10 -10 0 -9 5 -13 10 -10 6 3 10 19 10 36 0 16 -4 29 -10 29 -5 0 -10 -7 -10
-16 0 -8 -5 -12 -10 -9 -6 4 -8 11 -5 16 4 5 1 9 -4 9 -6 0 -11 -16 -11 -35z"/>
<path d="M342 418 c-10 -36 -6 -50 8 -28 7 11 11 11 24 1 19 -16 21 -4 6 33
-13 35 -28 33 -38 -6z"/>
<path d="M409 443 c-1 -2 -1 -12 -1 -23 0 -34 2 -40 12 -40 6 0 10 7 10 16 0
9 6 14 13 11 6 -2 11 -10 9 -17 -1 -6 3 -10 10 -8 7 3 13 18 13 35 1 29 -2 31
-32 30 -18 -1 -33 -2 -34 -4z"/>
<path d="M490 415 c0 -19 5 -35 10 -35 6 0 10 7 10 16 0 8 4 13 9 10 5 -4 12
0 14 6 3 7 6 3 6 -10 1 -34 21 -16 21 19 0 19 -5 29 -15 29 -8 0 -15 -5 -15
-12 0 -9 -3 -9 -12 0 -20 20 -28 14 -28 -23z"/>
<path d="M582 418 c-10 -36 -6 -50 8 -28 7 11 11 11 24 1 14 -11 16 -11 16 3
0 22 -18 56 -30 56 -5 0 -13 -15 -18 -32z"/>
<path d="M650 416 c0 -29 4 -34 20 -33 11 1 18 7 16 13 -2 6 0 16 6 22 14 14
1 32 -23 32 -15 0 -19 -7 -19 -34z"/>
<path d="M714 438 c-4 -6 2 -18 12 -26 18 -14 18 -14 1 -8 -13 4 -17 2 -15 -6
3 -7 12 -14 21 -16 22 -4 34 27 16 39 -11 7 -11 9 -1 9 7 0 10 5 7 10 -8 14
-32 13 -41 -2z"/>
<path d="M777 443 c-3 -5 -5 -20 -5 -35 0 -22 5 -28 22 -28 19 0 21 4 18 35
-4 32 -24 47 -35 28z"/>
<path d="M859 438 c-1 -7 -1 -17 0 -21 1 -4 -6 -10 -14 -13 -8 -4 -15 -10 -15
-15 0 -11 40 -12 41 -1 0 4 2 17 5 29 2 12 -1 25 -6 28 -6 3 -11 0 -11 -7z"/>
<path d="M980 415 c0 -28 4 -35 20 -35 11 0 20 5 20 10 0 6 -4 10 -10 10 -5 0
-10 11 -10 25 0 14 -4 25 -10 25 -5 0 -10 -16 -10 -35z"/>
<path d="M1034 415 c0 -39 23 -48 47 -19 16 19 1 48 -27 52 -16 2 -20 -3 -20
-33z"/>
<path d="M270 352 c-14 -2 -27 -8 -30 -12 -4 -7 -5 -109 -1 -167 1 -19 92 -16
119 3 25 17 29 56 8 77 -9 8 -12 24 -9 36 10 39 -34 71 -87 63z m40 -63 c0 -5
-4 -9 -10 -9 -5 0 -10 7 -10 16 0 8 5 12 10 9 6 -3 10 -10 10 -16z m17 -72
c-5 -15 -37 -17 -37 -2 0 14 20 25 33 18 4 -3 6 -10 4 -16z"/>
<path d="M10 255 l0 -95 54 0 c37 0 56 4 59 14 8 19 -1 26 -33 26 -25 0 -26 1
-25 63 1 78 -2 87 -31 87 -24 0 -24 -1 -24 -95z"/>
<path d="M161 255 c1 -86 3 -95 20 -95 17 0 19 8 19 95 0 88 -1 95 -20 95 -19
0 -20 -6 -19 -95z"/>
<path d="M415 263 c2 -108 1 -103 24 -103 16 0 21 8 23 38 l3 37 20 -37 c15
-31 24 -38 48 -38 16 0 27 3 25 8 -2 4 -10 20 -18 35 -12 26 -12 30 2 38 24
14 31 57 13 85 -14 21 -23 24 -79 24 l-63 0 2 -87z m105 26 c0 -5 -7 -9 -15
-9 -8 0 -15 7 -15 15 0 9 6 12 15 9 8 -4 15 -10 15 -15z"/>
<path d="M613 262 c-18 -49 -33 -92 -33 -96 0 -3 11 -6 24 -6 19 0 26 7 31 30
5 23 12 30 30 30 17 0 26 -8 34 -30 9 -27 37 -40 53 -25 3 3 -9 45 -27 93 -28
73 -37 87 -56 90 -22 2 -27 -6 -56 -86z"/>
<path d="M777 343 c-2 -5 -3 -46 -3 -93 1 -85 1 -85 28 -88 24 -3 27 0 30 35
l3 38 20 -37 c13 -28 25 -38 42 -38 27 0 28 6 8 40 -18 32 -18 40 0 40 37 0
41 81 5 100 -22 12 -127 13 -133 3z m100 -60 c-3 -3 -11 -2 -17 2 -9 6 -9 10
1 16 14 8 27 -7 16 -18z"/>
<path d="M960 342 c0 -4 9 -34 20 -65 15 -43 18 -63 10 -77 -16 -29 -12 -42
12 -38 17 2 27 20 50 82 15 44 28 85 28 93 0 21 -36 15 -53 -9 l-16 -23 0 23
c-1 17 -7 22 -26 22 -14 0 -25 -4 -25 -8z"/>
</g>
</svg>
